<svg xmlns="http://www.w3.org/2000/svg" xmlns:xlink="http://www.w3.org/1999/xlink" viewBox="0 0 932 103.77"><defs><style>.cls-1{fill:url(#linear-gradient);}.cls-2{fill:url(#linear-gradient-2);}.cls-3{fill:url(#linear-gradient-3);}.cls-4{fill:url(#linear-gradient-4);}.cls-5{fill:url(#linear-gradient-5);}.cls-6{fill:url(#linear-gradient-6);}.cls-7{fill:url(#linear-gradient-7);}.cls-8{fill:url(#linear-gradient-8);}.cls-9{fill:url(#linear-gradient-9);}.cls-10{fill:#0092ea;}.cls-11{fill:#3135b2;}.cls-12{fill:#006dcb;}.cls-13{fill:#00baff;}</style><linearGradient id="linear-gradient" x1="31.6" y1="112.01" x2="31.6" y2="50.42" gradientUnits="userSpaceOnUse"><stop offset="0" stop-color="#1c1c1c"/><stop offset="1" stop-color="#050505"/></linearGradient><linearGradient id="linear-gradient-2" x1="92.87" y1="112.01" x2="92.87" y2="50.42" xlink:href="#linear-gradient"/><linearGradient id="linear-gradient-3" x1="156.25" y1="112.01" x2="156.25" y2="50.42" xlink:href="#linear-gradient"/><linearGradient id="linear-gradient-4" x1="207.78" y1="112.01" x2="207.78" y2="50.42" xlink:href="#linear-gradient"/><linearGradient id="linear-gradient-5" x1="265.87" y1="112.01" x2="265.87" y2="50.42" xlink:href="#linear-gradient"/><linearGradient id="linear-gradient-6" x1="326.72" y1="112.01" x2="326.72" y2="50.42" xlink:href="#linear-gradient"/><linearGradient id="linear-gradient-7" x1="386.39" y1="42.62" x2="1114.13" y2="258.63" gradientUnits="userSpaceOnUse"><stop offset="0" stop-color="#00baff"/><stop offset="1" stop-color="#0092ea"/></linearGradient><linearGradient id="linear-gradient-8" x1="421.12" y1="-74.38" x2="1148.86" y2="141.63" xlink:href="#linear-gradient-7"/><linearGradient id="linear-gradient-9" x1="411.2" y1="-40.94" x2="1138.94" y2="175.07" xlink:href="#linear-gradient-7"/></defs><g id="Layer_2" data-name="Layer 2"><g id="Layer_1-2" data-name="Layer 1"><path class="cls-1" d="M11.56,60.22H55.17c3.44.24,5.75,1.34,7,3.29S63.51,68,62.69,71c-.63,2.48-1.2,4.42-1.71,5.8A11.7,11.7,0,0,1,59.36,80a3.88,3.88,0,0,1-1.8,1.37,10.55,10.55,0,0,1-2.33.43,4.07,4.07,0,0,1,2.27,3.11,15.31,15.31,0,0,1,.15,5.28,32.61,32.61,0,0,1-1.36,6,27.48,27.48,0,0,1-2.3,5.31,6.68,6.68,0,0,1-1.09,1.21,4.47,4.47,0,0,1-1.83,1H0L7.14,76.43c1.08,0,2.08.06,3,.06h6.58q4.23,0,9.63-.06-1.18,4-2.17,7.21-.44,1.36-.84,2.7c-.27.89-.52,1.7-.75,2.42s-.41,1.32-.56,1.77a5.06,5.06,0,0,0-.21.81,1.83,1.83,0,0,0,.12,1.15c.17.44.41.65.75.65H33.83c1.72,0,3.27,0,4.66,0l3.32,0q1.24,0,1-.06a3.7,3.7,0,0,0,1.87-.31,3.81,3.81,0,0,0,1.18-.87,3.29,3.29,0,0,0,.65-1.09,2.89,2.89,0,0,0,.22-1,6.34,6.34,0,0,0-.25-2.68c-.25-.62-1-.93-2.17-.93H27.4l3.48-9.69H48.33a3.42,3.42,0,0,0,2.37-.84,2.91,2.91,0,0,0,1-1.71A2.49,2.49,0,0,0,51.41,72a1.72,1.72,0,0,0-1.52-.78L8.57,71.15Z"/><path class="cls-2" d="M71,60.28l55-.06-3.29,10.87H87.57L81.48,91.34a1.83,1.83,0,0,0,.22,1.21c.22.48.5.72.83.72h2l4.2,0,5.62-.07q3.1,0,6.27,0t6.15,0l5.25,0c1.52,0,2.71,0,3.58,0s1.24,0,1.11.1l-3.1,10.49H67.69a6.11,6.11,0,0,1-1.62-.24,9.56,9.56,0,0,1-1.71-.69,9,9,0,0,1-1.52-1,5.87,5.87,0,0,1-1.12-1.18,18.51,18.51,0,0,1-1.55-3A4.59,4.59,0,0,1,60,94.32ZM90.55,76.43h27.89l-3.6,9.69H87.07Z"/><path class="cls-3" d="M164,60.22h23.05L144.85,103.7H125.4ZM134,86.06,127.7,60.22h17.58a3.48,3.48,0,0,1,1.49.34,5.08,5.08,0,0,1,1.34.9,6.32,6.32,0,0,1,1,1.27,5.72,5.72,0,0,1,.63,1.4l1,4Z"/><path class="cls-4" d="M182.15,103.7a6.9,6.9,0,0,1-2.76-.37,4.28,4.28,0,0,1-1.83-1.24,3.81,3.81,0,0,1-.87-1.86,6,6,0,0,1,.06-2.3q2.24-8.58,4.1-15.6c.54-2,1.06-4,1.58-5.9s1-3.71,1.43-5.28.8-2.91,1.09-4,.5-1.79.62-2.08a8,8,0,0,1,2.52-3.73,5.25,5.25,0,0,1,3.13-1.11h44.05a3.42,3.42,0,0,1,3.29,2.05,4.46,4.46,0,0,1,.38,2.14,6.54,6.54,0,0,1-.69,2.52L226.57,103.7Zm19.82-33q-1.42,5.16-2.55,9.38c-.33,1.21-.66,2.39-1,3.55s-.63,2.22-.9,3.2-.5,1.79-.68,2.45-.3,1.08-.34,1.24a2,2,0,0,0,.27,2.11,2.25,2.25,0,0,0,1.59.69h14l7.08-22.62Z"/><path class="cls-5" d="M232.48,103.7l11-38.64L251.42,80l-6.89,23.8Zm43.24-21.8,7.64-21.68h15.9l-13.17,43.55h-18.7L245.27,60.22h15.54a5.07,5.07,0,0,1,3,1.11,10.08,10.08,0,0,1,3.2,3.55Z"/><path class="cls-6" d="M304.42,60.22l2.45,0c1.56,0,3.57,0,6.06,0h18q11.49,0,26,.07a12.73,12.73,0,0,1,1.74,1.24,13.1,13.1,0,0,1,1.33,1.27,3.85,3.85,0,0,1,.9,1.59,15.08,15.08,0,0,1,.47,3,10.87,10.87,0,0,1-.22,3c0,.25-.2.82-.46,1.71s-.62,2-1,3.26l-1.37,4.26q-.73,2.33-1.55,4.75-1.86,5.65-4.16,12.55a14.2,14.2,0,0,0-.81,1.3c-.21.38-.43.77-.68,1.18s-.48.77-.69,1.06a13.83,13.83,0,0,1-1.15,1.71,3.3,3.3,0,0,1-1.58,1.15,9.55,9.55,0,0,1-1.18.34,5.87,5.87,0,0,1-1.24.15H292l7.52-25.28h20.38l-4.54,14.66h18.76a2.34,2.34,0,0,0,1.37-.47,2.91,2.91,0,0,0,1-1.08c0-.08.16-.43.37-1s.46-1.36.77-2.3l1.06-3.1c.39-1.14.78-2.31,1.15-3.51q1.37-4.17,3-9.38c.13-.17.07-.35-.15-.56a1,1,0,0,0-.66-.31l-40.69.06Z"/><path class="cls-7" d="M352.56,103.75,444,0h37.35a9.9,9.9,0,0,1,5.34,1.7A17.21,17.21,0,0,1,491,5.48a43.75,43.75,0,0,1,2.75,4,33.39,33.39,0,0,1,2.14,4.15c.1.39.5,2,1.19,4.74s1.53,6.27,2.52,10.52,2.08,9.07,3.26,14.45,2.42,10.85,3.71,16.38q4.44,19.56,9.93,44H465.65l-5.34-19.12L417.93,84q5.93-7,10.82-12.6,1.92-2.37,3.92-4.6c1.34-1.48,2.52-2.81,3.56-4s2.2-2.52,3.48-4h14.68L449.05,37.2l-58.69,66.55Z"/><path class="cls-8" d="M761,103.75,792.24,0h46.39L807.5,103.75ZM885.46.15,932,0,900.73,103.75H854.19l12.15-40.91H795.79l8-26.23h70.55Z"/><polygon class="cls-9" points="666.78 0.1 658.83 29.64 687.26 29.64 665.18 103.75 708.16 103.75 730.69 29.64 774.73 29.64 782.76 0.05 666.78 0.1"/><path class="cls-10" d="M516.44,65.65a30.2,30.2,0,0,0,29.15,38.1h9.08L599.3,67.5,658.41,0,580.52,26.67l-62,31.27C517.83,60.54,517.13,63.12,516.44,65.65Z"/><path class="cls-11" d="M639.23,71.33,658.41,0,627.57,61l-10,37.62A43.78,43.78,0,0,0,639.23,71.33Z"/><path class="cls-12" d="M596.94,103.75a43.77,43.77,0,0,0,20.64-5.17L658.41,0,554.67,103.75Z"/><path class="cls-13" d="M658.41,0h-121a4.19,4.19,0,0,0-4.05,3.09c-2.27,8.36-8.76,32.33-14.87,54.85Z"/></g></g></svg>