<svg xmlns="http://www.w3.org/2000/svg" xmlns:xlink="http://www.w3.org/1999/xlink" viewBox="0 0 932 103.8"><defs><linearGradient id="linear-gradient" x1="386.4" y1="42.6" x2="1114.1" y2="258.6" gradientUnits="userSpaceOnUse"><stop offset="0" stop-color="#00baff"/><stop offset="1" stop-color="#0092ea"/></linearGradient><linearGradient id="linear-gradient-2" x1="421.1" y1="-74.4" x2="1148.9" y2="141.6" xlink:href="#linear-gradient"/><linearGradient id="linear-gradient-3" x1="411.2" y1="-40.9" x2="1138.9" y2="175.1" xlink:href="#linear-gradient"/><style>.cls-1{fill:#fff}</style></defs><g id="Layer_2" data-name="Layer 2"><g id="Layer_1-2" data-name="Layer 1"><path class="cls-1" d="M12 60h43c4 0 6 2 7 4s2 4 1 7l-2 6a12 12 0 01-2 3 4 4 0 01-1 1 11 11 0 01-3 1 4 4 0 013 3 15 15 0 010 5 33 33 0 01-2 6 27 27 0 01-2 6 7 7 0 01-1 1 4 4 0 01-2 1H0l7-28h19l-2 8-1 2v3l-1 2a2 2 0 000 1l1 1h20a4 4 0 002 0 4 4 0 001-1 3 3 0 001-1 3 3 0 000-1 6 6 0 00-1-3l-2-1H27l4-9h17a3 3 0 003-1 3 3 0 001-2 2 2 0 00-1-2 2 2 0 00-1-1H9zM71 60h55l-3 11H88l-7 20a2 2 0 001 2h35l-3 11H68a6 6 0 01-2 0 10 10 0 01-2-1 9 9 0 01-1-1 6 6 0 01-1-1 19 19 0 01-2-3 5 5 0 010-4zm20 16h27l-3 10H87zM164 60h23l-42 44h-20zm-30 26l-6-26h17a3 3 0 012 1 5 5 0 011 0 6 6 0 011 2 6 6 0 011 1l1 4zM182 104a7 7 0 01-3-1 4 4 0 01-1-1 4 4 0 01-1-2 6 6 0 010-2l4-16 1-6 2-5 1-4 1-2a8 8 0 012-4 5 5 0 013-1h44a3 3 0 014 2 4 4 0 010 2 7 7 0 01-1 3l-11 37zm20-33l-3 9-1 4v3l-1 2-1 2a2 2 0 001 2 2 2 0 001 0h14l7-22zM232 104l11-39 8 15-6 24zm44-22l7-22h16l-13 44h-19l-22-44h16a5 5 0 013 1 10 10 0 013 4zM304 60h53a13 13 0 012 2 13 13 0 011 1 4 4 0 011 1 15 15 0 010 3 11 11 0 010 3v2l-1 3-2 5-1 4-4 13a14 14 0 00-1 1l-1 1-1 1a14 14 0 01-1 2 3 3 0 01-1 1 10 10 0 01-1 1 6 6 0 01-2 0h-53l8-25h20l-5 14h19a2 2 0 001 0 3 3 0 001-1l1-1 1-3 1-3 1-3 3-10a1 1 0 00-1-1l-41 1z"/><path d="M353 104L444 0h37a10 10 0 016 2 17 17 0 014 3 44 44 0 013 4 33 33 0 012 5l1 4 3 11 3 14 4 17 9 44h-50l-6-19-42-1 11-13 4-4 3-4 4-4h14l-5-22-59 67z" fill="url(#linear-gradient)"/><path d="M761 104L792 0h47l-31 104zM885 0h47l-31 104h-47l12-41h-70l8-26h70z" fill="url(#linear-gradient-2)"/><path fill="url(#linear-gradient-3)" d="M667 0l-8 30h28l-22 74h43l23-74h44l8-30H667z"/><path d="M516 66a30 30 0 0030 38h9l44-36 59-68-77 27-62 31-3 8z" fill="#0092ea"/><path d="M639 71l19-71-30 61-10 38a44 44 0 0021-28z" fill="#3135b2"/><path d="M597 104a44 44 0 0021-5l40-99-103 104z" fill="#006dcb"/><path d="M658 0H537a4 4 0 00-4 3l-15 55z" fill="#00baff"/></g></g></svg>